<svg xmlns="http://www.w3.org/2000/svg" viewBox="0 0 246.4 57.4">
    <path fill="white" d="M22.1 34.2h11v-11h-11zm0-22.1h11v-11h-11zM0 56.2h11v-11H0zm0-22h11v-11H0zm0-22.1h11v-11H0zm22.1 44.1h11v-11h-11zm44.1-22h11v-11h-11zM55.1 1.1h-11v11h11zm94.8 27.7V11.2h10.6c6.5 0 10.1 3.1 10.1 8.8s-3.6 8.8-10.1 8.8zm-40-17.6c6.5 0 10.1 3.1 10.1 8.8s-3.6 8.8-10.1 8.8H99.3V11.2zm-54.8 12h-11v33h11zm144.6 5.5c0-10.3 7.6-18.1 17.6-18.1S235 18.4 235 28.7s-7.6 18.1-17.7 18.1-17.6-7.9-17.6-18.1M88.2 56.2h11.1V38.9h11.4c12.3 0 20.5-7.6 20.5-18.9S123 1.1 110.7 1.1H88.2zm61.7 0V38.9h11.8l8.9 17.3H183l-11-20.1a17.6 17.6 0 009.9-16.1c0-11.3-8.2-18.9-20.6-18.9h-22.4v55.1zm38.4-27.5c0 16.1 12.7 28.6 29 28.6s29.1-12.5 29.1-28.6S233.7 0 217.3 0s-29 12.5-29 28.7"/>
</svg>